<mxfile host="app.diagrams.net" modified="2023-05-06T09:13:53.319Z" agent="Mozilla/5.0 (X11; Linux x86_64) AppleWebKit/537.36 (KHTML, like Gecko) Chrome/112.0.0.0 Safari/537.36" etag="_2QbqfHkjFMlUggGQDRb" version="21.2.9" type="github">
  <diagram name="Page-1" id="W6t0hbophp8vmCEmWSgL">
    <mxGraphModel dx="1434" dy="770" grid="0" gridSize="10" guides="1" tooltips="1" connect="1" arrows="1" fold="1" page="1" pageScale="1" pageWidth="850" pageHeight="1100" math="0" shadow="0">
      <root>
        <mxCell id="0" />
        <mxCell id="1" parent="0" />
        <mxCell id="yt1E-KUk-oppLwzMUsVN-28" value="" style="rounded=0;whiteSpace=wrap;html=1;" vertex="1" parent="1">
          <mxGeometry x="214" y="413" width="449" height="265" as="geometry" />
        </mxCell>
        <mxCell id="yt1E-KUk-oppLwzMUsVN-26" value="" style="rounded=0;whiteSpace=wrap;html=1;" vertex="1" parent="1">
          <mxGeometry x="218" y="419" width="439" height="254" as="geometry" />
        </mxCell>
        <mxCell id="yt1E-KUk-oppLwzMUsVN-22" value="" style="rounded=0;whiteSpace=wrap;html=1;" vertex="1" parent="1">
          <mxGeometry x="254" y="322" width="62" height="54" as="geometry" />
        </mxCell>
        <mxCell id="yt1E-KUk-oppLwzMUsVN-2" value="" style="rounded=0;whiteSpace=wrap;html=1;" vertex="1" parent="1">
          <mxGeometry x="224" y="423" width="427" height="245" as="geometry" />
        </mxCell>
        <mxCell id="yt1E-KUk-oppLwzMUsVN-3" value="" style="rounded=0;whiteSpace=wrap;html=1;" vertex="1" parent="1">
          <mxGeometry x="261" y="548" width="359" height="107" as="geometry" />
        </mxCell>
        <mxCell id="yt1E-KUk-oppLwzMUsVN-4" value="&lt;b&gt;&lt;font style=&quot;font-size: 18px;&quot;&gt;Fine-grained data collector&lt;/font&gt;&lt;/b&gt;" style="text;html=1;strokeColor=none;fillColor=none;align=center;verticalAlign=middle;whiteSpace=wrap;rounded=0;" vertex="1" parent="1">
          <mxGeometry x="324" y="553" width="233" height="32" as="geometry" />
        </mxCell>
        <mxCell id="yt1E-KUk-oppLwzMUsVN-5" value="" style="shape=image;verticalLabelPosition=bottom;labelBackgroundColor=default;verticalAlign=top;aspect=fixed;imageAspect=0;image=data:image/png,iVBORw0KGgoAAAANSUhEUgAAATEAAAAnCAYAAABnnX9aAAAABHNCSVQICAgIfAhkiAAAABl0RVh0U29mdHdhcmUAZ25vbWUtc2NyZWVuc2hvdO8Dvz4AAAA6aVRYdENyZWF0aW9uIFRpbWUAAAAAAM6jzrHOsiAwNiDOnM6xzpAgMjAyMyAxMToyNzowMiDOoM6cIEVFU1TDSE9tAAAgAElEQVR4nNS9d3Qd1bX4/5m5/V7dqy5Z3UXVlm1Z7r1gwFQTaighdB4ECDUJmE5InBBKQi8PCKZXYztgcKEYg42xsXHBTbItyZJl9XL7zOzfH/Jcj2Tey/u95LvW97vX0pLu3Jkz++y9z+7nSJkwYYIsX76cQCDA4cOH2bt3L729vQwePJji4mLC4TB79+4lHA4zZswYnE4nmzdvJhgMMnz4cNLS0mhpaeHHH38kNTWV0tJSDMNg69atiAilpaWkpqby7bffYhgGeXl5DBo0iEOHDrF//34yMjKorKyku7ubH374AYfDwdixYwHYuHEj8XicUaNG4fV6qauro66ujkGDBlFWVkZzczM1NTUkJSVRUVGBruvs2rWLYDDIyJEjCQQC7N69m/r6ekpKSsjJyaGzs5MdO3bg8/kYM2YM4XCYb7/9FpvNxvjx43E6nXz//ff09vZSWVlJWloaTU1N7N69O/HeUCjE1q1bcblclJaW4na72bp1K/F4nMLCQrKysti/fz8NDQ3k5OQwbNgwIpEIP/zwA3a7vd/8NE1j5MiRJCUlUVtby4EDB8jLy6O0tJT6+npqampISUmhoqKCSCTCrl27iEajjBw5Eq/Xy+7du2lqaqK8vJxBgwbR3t7Otm3bSEpKYty4ccTjcb777jsURaG6uhqn08kPP/xAb28vFRUVpKWlcfjwYbZv305hYSElJSX09PSwdetWfD4fpaWl2O12duzYQW9vL8OGDSM7O5tdu3Zx6NAhCgsLKSwspLe3l61bt2K32xk3bhwA3333Xb/51dTUUFdXR35+PuXl5Rw8eJCamhqSk5MZMWIEkUiE3bt395uf+Z6qqipSUlJQVRUrtLa2sn//fqLRKOPHj8fhcLBp0yZ6e3sZOXIkaWlpNDc3s3nzZgoLCyktLaW7u/uY+W3bto1IJEJJSQlZWVls27aNQ4cOMXToUIqLi+no6GD79u3Y7Xaqq6sB2LRpE5qmMWLECFJSUti5cydNTU0UFRUxZMgQmpqaqK+vx+v1/tP5DR8+nOTkZNra2qitrU3QJBQKsXHjRlwuF2PGjEFVVTZu3Eg4HGbkyJEkJyfT0NBAbW0teXl5DBs2jK6uLrZt24bf76e8vBy73c7WrVsJhUIUFxczaNAgdu/eTXNzM4MHD6aoqIiOjg5+/PFH3G431dXV6LrOhg0bEBGqq6txuVxs3bqVtra2xBiNjY00NTXhcrmoqqqio6ODXbt2oaoqlZWVqKrKrl276OjooKysjPT0dFpaWti5cycpKSlUVVUl1p+57h0OB5s3byYSiVBZWUkgEOhbB/tqGDqsmMLCIhRAM+C6a67FBTBhwgRpb28XEZEnn3xSqqurZfDgwXLmmWeKiMju3btl0qRJMnHiRPnmm2/EMAz5xS9+IX6/X5555hkREXn77bclKSlJfvGLX0g0GpV169bJxIkTJTMzUxoaGqSnp0dOPPFESUlJkccee0xERB588EFJS0uT3/zmN2IYhmzZskWGDBkic+fOlUgkIo2NjXLxxRdLVlaWfP/99yIi8vvf/16Ki4vl9ttvFxGRjz/+WIYPHy7nnXeeHD58WERExowZI6NHj5bvvvtOdF2Xe++9V9LS0uSpp54SXdflzTfflMGDB8vs2bNFRGTjxo1SUFAgJSUlifkdf/zxkpeXJy+++KIYhiEvvfSS+Hw+ufrqq0VEZO3atTJx4kQpKSmRYDAooVBILrjgAhk2bJi8+uqrIiLy0EMPyaBBg+SBBx4QEZH29nbJycmRc845R0KhkHR1dckFF1wg+fn5smHDBhERueOOOyQ/P1/uuusuERF55ZVXJDMzU84880w5ePCgHD58WCorK6WiokLWrFkjoVBIrr/+eklKSpInnnhCRESee+45KSwslPHjx4uIyIYNG6S6ulpGjRolW7dulWg0KhdeeKEMHjxYPvroIxEReeeddyQtLU3uv/9+ERHZunWrTJkyRSZMmCAiIm1tbXLOOefIiBEj5M033xQRkbvuukvS09MTuG7evFnS09PljDPOkIMHD0p9fb2ccsopkpSUJOvWrRMRkauuukrS0tLk0ksvFRGRZ555RnJzc+XUU0+V1tZWaWhokMrKSqmurpbNmzeLruty7bXXSnJysixfvlw0TRMRSfwWEVm/fr1MmTJFZsyYIdu3bxdN0+SCCy6QIUOGyMcffyzxeFyWLl0qdrtd7rvvPjEMQ7766isZPXq0jB49WlpaWqS+vl6OO+44GTp0qLz55psSjUblggsukOzsbLn55ptFRGTFihXi9/vl7LPPlsbGRtm/f7+cdtppkpWVJdu3bxcRkd/+9reSmpoqDz74oIiIvPDCC1JcXCyXXHKJ9PYGJRaLy6hRo2XmzFlSU1N7hOcLxO8PyPLln4iIyFtvvS25uXly6aWXiWGIbNr0vQwZMlQmTZokO3bsEBGRqqoqGTZsmPz9738XEZGHH35YAoGA3HrrrRKNRmXVqlVSUlIiVVVV0tXVJY2NjTJjxgwpKyuT9957T0REbrnlFikoKJBHHnkkQcecnBy56qqrxDAM6ejokPnz50tRUZF0d3eLiMjdd98tOTk5x8jaZZddJpFIRLq7u6WoqEimTJkiGzduFBGRSy65RJKSkuTdd98VTdPkr3/9q2RnZ8v8+fNFRGT16tWSn58vFRUVsmPHDtE0TSZPnixlZWXy4YcfSjwel0cee0RsHrs88Z/PypbdtfLW0k/lg0+/kAt+caXcfMX1YsvLy7v3oosuQtd19uzZw4YNG/B4PJx99tmMGjUKTdPo7OykuLiY6upqvF4vLS0tFBQUMG3aNPLz8wmFQkSjUSZPnszo0aPRNI2enh7y8/OZO3cuHo+HQ4cOUVRUxKRJk8jLy6OtrY1AIMC4ceMoLCxEVVVaWloYOXIk06ZNQ9d1ent7SUpKYt68eXi9Xg4fPkxKSgpjx46lvLycrq4uotEo48aNY8SIEQnPpKysjGnTppGamkpnZyc2m40ZM2aQn59Pe3s7NpuN0aNHM2nSJHp6eohGo1RVVVFdXU1SUhItLS0MHjyYcePGkZ+fT3d3N5qmMX36dKqqqohEIvT29lJUVMSsWbNQFIWWlhby8/OZOHEiWVlZdHV1kZSUxIQJEygoKEBRFOrr66mqqmLSpEkYhkFzczODBg1i1qxZuFwuOjo6SEtLo7KykuLiYiKRCIZhMGrUKMaNG4fNZqOhoYGKigqmTZtGRkYG7e3teL1eZs+eTUFBAe3t7TgcDqqqqpgyZQq9vb3EYjEqKioYN24cPp+P7u5uMjMzGTduHNnZ2UQiEYLBIDNnzqS0tJRIJEJXVxd5eXnMnTuXeDxOW1sbhYWFVFdXk5mZSVtbG2lpaYwfP578/Hx0XaelpYVRo0Yxfvx4bDYbzc3NZGdnM3fuXFwuF+3t7eTk5FBRUcHo0aPp7u7GbrczatQoJk+ejK7rtLa2Ul5ezrRp03A6nRw4cABFUTjzzDNJS0tDVVUMw0BVVSKRCF6vl7a2NsrKypg8eTI+n4+6ujqysrI47rjjSE9Pp7W1FYDq6mpGjBhBNBolHA6Tn5/P/PnzAWhpaSEpKYk5c+YwePBgGhsbSUlJYfr06ZSXl9Pb20tvby/jxo1jwoQJABw+fJjc3FxOOukkFEWht7eX1NRUxo8fT0lJCcFgEJfLRWVlJaNHV2G3O6itrWXkyJFMnDgJn89HV1c3TqeLWbNmkZqaRk9PLzabjTFjqiktLSMcjiAiVFSUU1VVhd/vp7m5maFDhyZo393dDcC0adMYOXIkwWCQYDBIcXExs2bNQkQS/KyuriY7O5uOjg4CgQBjxoyhoKAgsc6rqqoYO3YshmFw6NAhcnJyOP7444lEIoRCIVJSUhIyHQwGcTqdjB49OqEr6urqGDFiBFOnTsXv99Pa2kpKSgozZswgOzubzs5OfD5f4pnu7m4cDgfDhw9nwoQJeL3exPzGjBlDVlYWwd5ebCrMnDaTzZu38dRTz/DZ518wKCMDny4oZjiZmprKypUrWbx4MTk5OVxxxRVkZ2djGAatra3EYjHy8/MBaGpqQkRIS0vD7XYTiUTo6OjA6XQSCARQFIX29nZ0XScnJyfBcMMwSEtLw+l0EgwG6e7uJhAI4PP5iMfjHD58GL/fTyAQIBaLJd6Vm5uLw+Ggra2NWCxGUlISfr+fWCxGfX09GRkZuN1uXC4XTU1N2Gw20tLSsNvtBINB2trayMjIwOv10t3dTUdHB16vl8zMTGKxGC0tLdjtdtLS0nA4HDQ1NaFpGqmpqSQlJREOh2lvb8fn85GcnIyu67S3t6OqKhkZGRiGQUtLC5qmkZWVhcPhIBQK0d7eTkpKCklJSQmhSEpKIhAIoGkavb296LqOx+NJ4BaJRHC5XCQnJwMkwpGUlBRsNhuHDh3CZrMRCAQSii8YDCZoEAwGaW1tTcxP0zQOHz6MoihkZ2ejqiodHR0JReb1etE0jcbGRjIzM3G73cTjcbq7u4nFYuTm5qLrOp2dnQAJPHp7ewmFQvj9fjweD/F4nM7OTlwuF4FAILFwIpEIKSkpuN1uOjo60HUdwzDIyspC0zQOHTqEx+MhPT09ISciQnZ2duJzKBRi0KBBuN1ugIQSC4VCHDhwgNbWVgYPHkxBQUHimXA4TFFREUBCPpOTk7Hb7TidTlpbW/H7/QlZdDgcRCKRBH8jkQg2mw2bzYbD4SAej9Pc3IzP5yM1NRWAxsZGNE2jsLAQgO7ubnp6eggEAgn57OjowGazkZKSit1uo6mpGY/Hg8/nQ1EUIpEInZ2dDBo0CLtdJRyO0tbWRlJSEikpATTNoKOjHV3XyMzMxGazcfjwYYLBIDk5Objdbnp7e2lvbyc5OZnk5GR6e3vp6enBZrORlZVFLBZL8CsrKwun00koFKKjo4OUlBR8Ph+hUIienh58Ph9JSUkAdHZ2EovFSE9PT/C8u7ub9PR0XC4X0Wgfri6XK8G/pqYmVFUlKysLwzASPE9NTcXpdNLd3U13dzcul4vMzEyCwSChUAhN0xLy2djYiK7rpKen4/V6Cff2EmpvJ31QLqs+XcXf33yLrmiEvMxMkuJafyXW2NhIOBwmEAiQmpqK3W4nHA7j8XjQNA273Q6AruvYbDYMwyAej2Oz2fp9B2Cz2RIC5Ha7EREURQEgHo9jt9tRFAVd11FVNfG3zWZLjKGqKrquY7fbMQyj3zVd13E6nQmBFpGEgJvvNt9pxcmKh2EYaJrWbxwrDJyLOSaQGCMajeJyuRLjikg/HMw5me9TFAVFUYjH46iq2g+nWCyWwMU6VystnU5n4rpJN8MwEJEETUyw0tnEy8TNpJk5RwC73d5vzpqmoShKPxyttLfSyKSdia/5PvO6qqrE43EcDkc/GlnlyqQlQDgcxuVy0dXVRTAYJBAIEAgEEnQE2L59O/fccw+jRo3immuuSShUK39jsVhC+ZmyvHPnThYvXkxPTw/Z2dlceumlrFmzhnXr1iXwDAQCdHd3k5GRwbx58ygpKUngGYvFUBQFh8PRD2/rfM25HsVXwTDkCD0V4vE+Ze5yOTAMUFWIx/UjMmHizxHa9f3WNC3BJ6scx2Ix7Hb7MTwwv3M6ncfIp6IoCa/WMIzE3KyyZ4J5v1WurbJlgpV/5nPWcQaunYHv1jQNVVWPWYfoOuh9z8ZCIVp7u4nbVR645168mtDv7tTUVHJzc0lKSkoM5Ha7+wkaHF3UqqricrmO+c46MfNe6zWHw5H4bL3fXFimBTQJZX5nnZy5iMxrA4lsfac53kA8RCQhaCaBrWAdyzqm9V7r+3/quYFMNO9zOBzH4GTiYp3rQLzM6wPpZp2j+ZxVyExlZKW9oijY7XbsdnviWes4VuNhzltRlATtTSE1cTENjrlAzMVm4mwqMBMXcwwr3UylaHp3L730EmeffTbbtm1LzMscz/QwWltb0XUdr9eLoiiJxa6qakKBmfNpaWnhlltuoampKYGfYRgEAgGCwSB2ux232013dzc2m43a2lruuuuuhDxCn+yZvAISC9fKa+v3ffw0ZdHktQ2Xy+T30fmb35vXVRV03Uh8b64Hq7yZhs1Kx4EwUA5MuRooawPXmXnNyjNzflYcTPpa4RhlNABvU0asz//UM9hsYLeBXYUkO44UF4pPAa+C4baRGCEWi7Fs2TLefvttysvLueOOO3A6nQmrDX0Cp+s6DoeDWCyWYJTVwzKZbTLW4XAQjUYTAjzQS4I+DaxpWkLgfsrSmQtN07SEshIRYrEYLpcrYXHgqHeg6zoiksAlHo8n3msSz2qZRCSxAAZ6T6qqEovFEpbapI3dbkfTtMQCNBWjSR9zfOt8w+FwwgCYc3e5XP0slJXmJu7m/DRN6+cxWedi0sr0MAdaXpMupsGwKjtN0xLCbV6z2Wz9PI2BysfKQ6tFNccw6WL1Gq24mGDKjlWpRaNROjs7E6G61etWVZWxY8fy0ksv4fV6Ezw2PUVTPsz3hEIhvF4v0FfRrKysZOjQobS2trJ06VIMw6CiogLDMOjt7cXr9ZKfn893333HN998089jtcpYPB5PhOAmv015MO/ro4GVdkc94D5ZtCECIgYiar8xbDa13/tUVU14LIZh9FOW8Xg8QSOTf3a7PYGbdY1YcTNl2zRg0WgUIBFh6Lqe4Jk1YrDiFI1G+4X7pjyYnrDp1ZsyYDX+Vi/RvB6NRo/OQxRAAUVh6bIlLHr7NVp7O8nOHERA9R5VYk6nk2g0Sl1dHYWFhbjd7kT+wiqk5kusCsMUPpOgpsCbruLABTDQu1AUJRFyGobRj9B9LvdRF9WquRVFSXxnPmNlxkCFaXoWVq9jIFiFwuqpmUrBxEHTtAQzTZwGWhWTaSaYysfj8STmZhhGgtYD8bG+3/w9MHy38sb8GUizgeNalZ6Jn+lFmWAaLJN/VgNk0t581lSEJu2tqQVTLsz5mYbIVEZWmpoLJR6PoygKgUCA6667jrPOOouCgoJ+oZr5XCAQwOv19vMmzLmbStowDLxeL9FoFL/fz7333stXX33FgQMHMAyD77//ni+//JJp06bR0NDA1KlT8Xq9rFu3jqysLN54441+NDMVjDUdYPWQBnph1t9m6OdwHKX1UdocXdhO59ExzOsmmONb+TFQoZl0cjgc/XAweT7Q23I6nQm6m/QzjdrAcU3aW99vVWDWdMNPRXIDDdhAjw7oJ78IoAMGaN29hNraMPQILlXB6/UdzYn5/X7C4TC1tbWkp6eTnp5OW1sbe/bswe12k5WVxdChQ48JpQbGwV1dXYmktEkIc2FZvQtrTsZUClbhNy2cdQzzO6s3YFokc5FZlapVu5t4m5/NMU1Bt+ZsTLDOzWS+WTG1zs98r3UeJm6mojPHtuYcBjLXOj8rXlYP2PzeVGZmfswcU1GUY3I01lyjKcADc4NWwbLm5sznrc9ZLaY5ByvtBuYSrV6K1fJaeTAwJ2rloVm1tfIjEomwf/9+Hn30UbKzs7nyyisTiX3TIzZp29jYmKgKWmXTNCKrV69mwYIF3HbbbWzZsoVLLrmEkpKSY/JaDQ0NiSptenr6MfyzGtCfknfr31aP3+qd/FRO1ZQBm83WzwsyP1sNtjWP+VN8t8qsVXkM5LWJhymzZjXYGp5bZdsa3ZjvDQaD+Hy+fuMPzN9Zc2vRaDQxt34GNaKjajZwQLC7idrGWmweBw89+jds4qHfCjKb8syE/nvvvceSJUvYt28fpaWlPP300/h8voQgxWIxPB4PHR0d/V5qlrStYLqG4XAYAL/fn6hmmYJsWmiTKOZC7e7uRlXVRHhkvttcGC6Xi0gkgsPhIDk5+Rj32STqQKEzrw/MSZlgVc7mPVYFBke9GqsC03U9ESKaFsma7xr4rBWseTJrzsuaCxuI60BPa2CO5qc8z4G5CejvsZrXrcrSipc17DTxsS5E66IamHYwfw/M71hzrWZovHTpUlauXMl1111HZWVlgmdm3spsbrYqQXPhRqNRamtrWbBgAXv27OH444/nkUceAfpaKjo6Oti2bRufffYZvb29vP3222iaxquvvsqsWbMoLi5OKMbW1lZuuOEG2tvbGT16NAsWLGDQoEH9FJTT6Ux42wPDSZO2phEb6ElbaWN1FCKRCD6fLyG/A72ggZHLT+Wu/ytP3ArWHJn521occLvdxzw3ULZFpJ+XbIbv1nGtuFqfhaNye0xuzWnr88YU8KVnMcRtw+dPIh6J4/Gn9a9Obty4kS+//JLBgwfzs5/9LIHY+++/z80338z8+fPJyMigoaEhocx6enqIxWKkpKQcQxgrmNUms2XBXByRSITu7m58Pt8RN9vRz4vo7OwkEAgQj8eJRqOJ/quCggJaWlpQVZVwOJwoEZ922mn88pe/TBCtp6cHv9//k3m5fycM9DJMGJiH+H8BTE9moLX+V8b7ZzS3hpjmvV1dXfz+97/nscceY8mSJZx00kn9DERTUxNr167F7/czfvx4AoFAvyrbrl27uPvuu5kyZQrNzc34/X7OP/98li5dSn19PR0dHfh8Pvx+f8Jzi8fjZGZmUlNTwznnnMPkyZNZsmQJ1dXV3H333UydOpWuri5qampYuHAhGRkZ/cJm893w04ltK/yUzFjzSQONi1URmqma/wlt/ydgetgDlanVCFnB9BDNe82WKFPWrU7Jv4yfAPG+3zv2buOzNSuJxqIcqGugvTNCotnV6XSyZMkSHn/8cYLBIDNmzEiUqzdt2sSqVatwu91Eo1FCoRA2m43Ozk727dvH559/Tl5eXqLJ7qd+FEVJ9IY1NDTg8XhobGzkgw8+YMOGDeTk5FBVVUVnZyc//PAD27dvp6GhIeGBFRUVsXLlSlauXJnoOTM1/zfffENNTQ15eXksX76coqIisrKyEr1jcDTnYhI9Eon0K+3/lHX6/wOmi24KobWiY37+vxlM79cMO8zQwuqN/XdgLixrCGwuioG5wZ8Ca+LfDGk8Hg8Oh4OhQ4cmmnutnqC53aywsBC/398viR8Oh7npppsYNWoUgUCARYsWUVxczIYNG9ixYwdJSUlMnTqV3NzchDLw+XykpKTgcrkoLy9PFKWefvppIpEIAB9++CEzZ86krq6OUChEaWlpIi9qVV4DW4rMhLmVHqb3aNLLlBMTH6tnOzABPrBV5l81NmbkY0ZFptE3Q0BrOGqtWJrPWkNaayHOmnr434IoYNigVxfeWvwuf33ySdZ+/Q0ZWYNQVOfRcNJm6+tqT01NTcT8QKIxzXRbg8Eguq7T2NiIYRjU1taSlpaW6Br+r8DMAei6TkpKCnV1dTQ3N3PDDTeQn5/PU089xcGDBzlw4AAlJSVMnz6daDRKY2NjotHUbrfzt7/9jdraWlasWEFOTg6hUIhAIMC9997LCSecQElJCe+99x4nnXQScLRPzfQETbBWm/olEf+XYE22mh6m2UZhbRX5vxWshQPzb2uoOLDHZyBYK5/mZ6ti/GdgehTmO82erqlTpzJlypSE1+/3+xO5oObmZpYvX47H42Hu3LkMGjQI6AtjDMPgwIED2Gx9TZolJSWsXr2aCy64gIyMDLZt28a6desoLCykqqoqUeE20yP79+/nk08+QdM05s+fT01NDd999x1+v5/169fz448/UlpaekzV1xqKD6SttcJnwk+1Opi0N72bgfm0gWMMzCH9b8Ga8jDXhImzNbS0emZm3tJ8bmCk8+8y3roBXpfCzOkzyc7IRNENvv76G6JC/5xYaWkpFRUVxOPxhDX785//zPvvv09WVhZnnXUWHo8n4aHV19ezZcsW7r///kSH9X8F0Wg0sUG5paWFhQsXMnXqVB544AGWLFlCbW0ts2fPZv78+WzevJmmpiZ0XSctLY2KigqWLVtGU1MTI0eO5KSTTiIcDrN27Vouv/xyNmzYwPbt2/nwww8TjDerh16vt19F0GwyNROOoVAo0cX9r4CZC1FVFYfDkSi722y2xLv/XwDTepqelamM/jtFb82FWHOPZp7sf6LEBlaszQbrr7/+mi1btnDmmWcmdn9AX9hSV1fHH//4RyoqKpgwYQKDBg0iHA7jdrtRVZVHH32ULVu2sGfPHurq6rj66qvZuXMnnZ2dnHXWWYwZM4bOzk4WLVpET08PHo+H3t5eiouLmTdvHnPmzGHt2rW8//77TJo0ifPOO4+PPvqI0tJSJkyYkNjGZRYcBi5ua1FJUbBUHI+Gbjabiq4fbckwW0mcTidOpwMR4whtXf3CRytN/x3hpGm8TN6ZkZOZf7TyyXy3aahNGTGT/6a8D1R4/1tQBJy6DtgYN7yScRWVYMAXy1cTt1mUmKZpNDQ0cODAgcQO8+bmZj7//HOqqqoIBoPMmzePd955h8rKSqZMmcKyZcvIycnhoosu6tff81Ogqio9PT14vV7effdd9uzZw4knnsh7773H888/z+OPP057ezuPP/44TqcTn89HTU0Nw4YNY9OmTZx99tmccMIJXHPNNTz22GM4nU727NlDVVUVc+fO5frrr2fXrl3MmjUrsTXGTCz+VLUkEomgKEq/5OO/AtbGPfM95vajf9c7/k+CKXDWYoCpkKxCPBCs1Uprzsa6GP4n4Y41tDc9sng8zldffcWTTz5JeXk5BQUF/TzCoqIifv7zn1NcXJzo5rcaq6lTp6JpGitWrOD8889nw4YNRCIR7rjjDr7//ntuuOEGvF4v5eXljBo1ilgshq7rbN++nQcffJDMzEyuvPJKqqqq+NOf/kR+fj7HH38827dv57bbbmPo0KFAf09+YNf50WpkHLvd1q8yKGIqeMEw9CN0sGEYCoZh9tb179AfSOeBXtn/FgYWXzRNS6wVK83/qwq0eX1gI7S14PK/BwNsBiA01NSzY9suFEPBbXej22JHlZjdbmfDhg08/vjjjB07locffjhRqSosLGTz5s04HA5WrVqF31mpCIcAACAASURBVO9nypQpbN68GZ/PxxdffPFPNW4sFsPv91NTU8Prr7/OlVdeybZt23jttddYuHAhP/74Ix988AFjx45l9erV/PznP8fpdCaOAPnLX/7CueeeywMPPMBZZ53F7NmzufXWW3nuued47LHHOPfcc1m7di25ubmJ0FZE2LdvH5999hlr1qwhJSWFn/3sZ0yaNCnhKcHR0OVfAVVVE8rLWpj49zDx/zxYK79WxdvT05PYKzgQTAUmImzdupXa2trE5mAzffA/Te6a9HI6nf1yLXl5eUycODGxj9dsNdE0jfz8fH77298mUg3WVhtzD+y7777LxIkT+fbbb4nH49x///3ceeed1NbW8oc//IHMzEwyMzMT4aTpPR4+fJiPPvqIK664gvvuu4+//OUvXHPNNRQUFJCZmcnzzz+f6OQ3vW9rTuzQoUOsX78eRVGYNm0aaWmpWD2w2tpa1q9fT3l5OWPGjCEWi/Hpp58mFKDpGfYZAwcVFcMZNmzYMfL078iHmWBtHzKNirm/2WqUTDCN2549e9i5cyc+n485c+b0C3tN3v5L8q8IKDq6IXy+/msWvfwGLuzkFuThSHL198TM0M3cOJuenk5ZWRmLFy+mrKyMYDBIVlYWXq+XSCTCvn37CIfDPPPMMwmh/S/xOKIQzXPH7rvvPv7whz9QUFBAa2srL7zwAj6fj/r6ekaPHs17771HNBqlqKiI1NRUiouLef311xkxYgTHHXccRUVFXHXVVVx88cV88slysjIzSE9LRQwdLR5DUWDpkiXceOON1NXVo6Ci2hSeeeZJZsyaxSuL3iA7M4NIMIjH26fAjlRxAaFvt5vS91n6kosAypG7zODHZOmaNWtYsWIF8046hcmTJyKGDggOpwvV0qwoGH3PGCooIErffX1dySq62W6AgAgo6pF3HX1jf5HVjnxngyO7yI7OA8A48qMANnTL3YqYXYQKotjQUbABdpsKotHS3MJrb79PKBLh9t/cgnLM2BzpNIfbb7+DdevWceedC7j11lv7Qh9DjlFgR6ln4tQ3P1Xt89h0UVAVEL2vCfjCCy/iggsuRFWPeiHQt8h6e3s5ePAgdrudgoICXC4XNpstkTtbu3Yt9fX1nHHGGbz66qvcfPPNPP744xiGwV//+ldKS0v7KGQY/VoDYrEYmZmZXH755QwdOpR77rmHa6/9FQsX/ol7772XiRMnsHfvXnbv3kVVVdWRiRlHcLQRjYR56803uPXWW/F6vTzw4B+46pprsdlUVLsNMPh42WLuvPteTj/nAh7+80I6Gmq48+br2Lq3Hl9yMj09QTweN6LruF1O3njjdQoK8nE4XUfoZqCqINK3J9Pc1sQxknn0s1g+qUdwxqKUkpL6PK9gMITP6+YfS5ey9ONP+MtfHibJ17dGdEOw2RTMHYvh3m7WfvUlN97yW6bPmMGcOXP6xkVB13Rsdjt2h+MYrAbCsZv+rPcrR3Y82ElKDjC4ZCjB7iAhieGw5sTsdjtz585l9uzZicS0z+djwYIFpKamsmfPHlwuF+FwGF3XcbvdtLW1sWDBAk477bRjchrHIHOkme3ll1/mwIEDJCUlUV9fz69+9SsWLFiQyFG88sordHZ2cs0112C323nxxRdxOp00HmwgPS2VP/9pIXfccQcvvfQS/iQfebk57Nr5I0WFhThsKlositNu43BTI/ffew+HDzUxd84cZkyfw779NXy47C1Wf7GSX91yG4tefAmvxwVaHF1xodhBdB1d4ojdASjY44JqsyEKdPcEsdNnGe2ePk9Fi8bp6ergyisuJ64L04+b19dcHI/hdDnRDCESN5A4eLx2FJsGho5N94ACvUYPXqcTm64Q64mgp6YSMYRUVUcLBolgx+nxgKpjU1QUbGia4LApxKNRbPYQql1Fi6nYnUnENYNgKIbH5cFhB9WmoUeDxDXB4U0hckQpegFFi4OqoQfD9NiTcHtdKIDTZYdILy8/9xS3/+lJzjz35xj0KRbVpvbpViAcCuN0e9ENgzHV43E43RQPKyYe17A77CiqQrA30rd8VPB5fegCdkVAj4GqEo2rBMMR3HZwe3zoqkLMACWu41FVOju6CIVDZGSkJwolZiize/duLr30UsaMGcPdd9+dML5+v59QKMTrr7/OGWecwbJly5g1axY1NTXs3LmTu+66i5KSEuBoQ7O18ubxeBLyPHv2bJKTU7jl1ttYtGgRM2fOorOzg4ryMr5dv44RFeU4nE4kHkOx20FR6G5vZfnHy0AMent6eeudtznxrPMpyM3AjQpaiCQ79HYH6RUb4nDh1zpxB5tQBUaMGYfd4cFhs+OxCYYWwZ/sQzNi2HGhqCoQO6JUHNhsCgjoepxoPIzNZseGE7vDDujE4zF0HZweLyEdRAe/Q8DQQCAei+Ow28DhRBQFj8fLD9+u5b4Ft3OgtYd7H/wTPh+EgiHcXi8GgE2hu6eXgNtGbmYaE6fPJm9oMQAqBvFQBIfHh64bRGIaqt2Oy3HEM9N1bDaVWDRKKBzB4XRhd7qw21ViOjhsffKlaQZOu4oiKja8EBPOOO00Tj3tNLrjUW7+za1EtXj/xH5nZ2fiDKSMjAyam5s59dRTaWtrY8KECYk4PBQKASRaH0wl9c9A0zT2799PSUkJO3fuBPqOmmlubiYYDLJixQoKCgp47733yMjIwGazcdlllzFhwgRaWw5z0UUX8vrrrxOPx0hNTUkkS0PBILqmYWhxkgMBusWgvbWFvXt2k5sziHvuvptJU6aBAkP/lMtjTz/DngN1hGIa61ctpb62llEzT6ayqgK7TYiEwrz02mvYbS6uvuAiOg638sW3G1j20TJaGvYzvLKSuaeezbRp47HbHbz91tscOnQIl8fHJytXkZefz/BheTQdbGD56jX84+MVDErL4rTTT2b2CTNQRYOeTlat/JRGJcyIygrWLf6INWvXM/P8X3LKGaezYc1qPl68mO44XHLFlYwZX42qCorEQTOwiQuHywVKjB82b2T9tzuoqp5ET7CHV/7+GioObr3lJnxeg4+XfcDqFSsZP30us8++gmFD0lEFIl2drPtyNe98uISoJ5UZx5/EjGmTyUv1Ub/9Bzau/wY9Gmfv/gY+WPIxM6dM4Pvv+xLlEyeM58sv17Bv/wF+/esbmTlzFnl5eRSXlOFw2Ilrwt69e1myZDEbNnxLWnoqZ519NuPGTcDtsOFzwtrP1/CPz9fxw7YdDEpN4tTTz2DSnJNJDjhxuR3Eo3Gef/4FnnzyST5c8gEjRgxPhJtmAaK8vJxAIHBMBS0ajaLrOklJSezbt49bbrmFhx56iNNOO42KiopE5GAa5oGFCKs8V1VVccopp/K7393ODddfx5IlH+Lz+fhk+XJOP/VUBmVnoTjsEI+Dzcb3mzay68cfycvNprW1lW++WceWHT+SkTMdlwISj+Fx9Cmejt4Qit2B3yHEugxSA06efuZ5SkuHoAKqBhhR7E5QUIlrgk1V6A314vF4iMUM3nj9HdJSAgwrHswHH77D3r17Ofesixg9ahSNhw7w8MN/IWdQLmecdT4TZ8/AbgOiMWp3b+eJZ1+g8VAzE8ZVc8rpP6Nk+HAONjby9ZovaWqoJ2Q4efe995k8djSlJSU8/dx/kl84GEOEFcs+4ML5J1JeUsI55/2cQbl9R3XFQyEcSUl89eUXvPH2e9Tur2P85MmcfebPGDm8jFgsSijY11z8xZdriETjTJ81h9lzT6ByRCmhqOByKdjtRyIYs09MUejs6aKDIAd6Gmn2tKIr+tGTXXVdl3/84x9y+umnyx//+EeJRCLS1NQkEydOlDvvvFNmzpwpHR0dcv3118s777wjhmHIzJkzZe/evRKNRuWfQTAYlM7OTlmwYIEsXrxY3nzzTbnmmmvkoYcekjlz5siFF14oo0ePljvvvDPxTDwel1gsJjfddJNMnTJZ5h43W8rLSuThv/xZbrv1ZvlqzRfy/HPPyKW//IU8+9QTcsM1V8ndt/9GbrruGmluOCCV5SViA7nsFxfKSy+8IF+sXi01O7fLth+3y3f7D0qnLnLfTddKtl2R//jVrXKoMyIiIXn5xScET0DKxk2XfXv2yN/+vFDALpnZeTJmZKU4VFWc/gx57pW3ZM/efVKYXyBej1tAEVS3PPLkc3KosV7mn3yioKiSnDFIkgPpkpySIfcs/IvEdU3adm2WGSOGCCoyuKJExpYVSpKCYLPJmFlzZMTwcikdXCCqqoonkCrfbPlR2sOaaGKIiCaiiYguosV65I4FtwmKW8aMmy4FgwfLkGFDBRxSVFgiF1xwkQwpyJUsryI+l03Oufo22ddlSKSzS2657GJJcznE63RKdvYgQXHIdXfcK92RqPzxtv+QAAh2v6CmyJTZJ8qm7zfLTTfeKHa7Q3LzBwuqS8AunyxfJWOrJ4ovKUXuvPsB0QyRNWu+kkkTJ4pqs0tuQYF4/UmCgtxz//0iosvaFf+Q4UPyJSmQIsUVlZLs94nD4ZAzL7pCujQRXUQ62jrk0Uf+Jmf+7Bz56qu1CbkwDENERGKxmNTW1srBgwclFAr1k5tly5bJvffeKy+++KLcdttt8tFHH8nll18ujY2NIiKyZcsW+fTTT0XX9cQzVtB1XSKRiIiIaJou323cLBMnTZV9+w7I7353u/ztr4/JrBnTZPk/loroMRE9KqJHJdzVJr+96XqxgVx/7ZXyiwvPE6fXK/PO/6V09rFMRAvK3x//vdhBTrr4amnqCUnX1uVS5VclzeeQ/3zjPVnx9UZZsXaDrFm7XpqbD4mmh0UkJprWh68hcTEkJtu3bZPS4nIpKiqR0VVjpaAgS5wOBOxy2aVXS3Z2ppSVDpbMZJ8MGTxYlq/5ViIi8t4br0pFUa64bIqUDBsmNpDpU6fJlh/3yrpvN8qU0cPFA+J0eQWbW157/U355NOVgs0lmQXDJDW3SFAU+eOdt8lfFz4gqB4ZP+eUvlOi42F5ZOGD4nO7xO5wSemIUeJMSpGCoSXy1dqvpburU06ed4KoIMMryqWwaLCg2GX4mAnyzaZtEhWRaJ+USzgS7SNaRERiIq988IpMuXq2VCyYJtxeLjxYIYlkjVlWNw+DMw8hzM7Oxm7vOzDQPG3V3OUej8fxeDz/o/YEcwNuKBRK5B/MBHxbWxs7d+5MHAhozXuYXft1dXUMHToMr9eHw+FMeH89PT2kp6cfOYrFh0hfdTArJ4dbbr6ZstJhvLzoNf7j2qs466yf8cB9v+eHLT/i9ScjKkyfOhkVWP/dRvbX16OHe/nw/fchCqedfha5Odm8+urLJKcEuPHGG/nHsmU89thjTJ8+nXA4TG5uLr///QN9hxS63dzzhz9w8skn8+6777Lmq68YM3YsKz5dziuvvIDX6+HpZ19h1+4D+HwKqakuFIeHysrxPPXsM9x5102AwQ+bNnH6GWfx8mtvcNxxswn39LBpy4/YnLa+bIgWAT0KItgcSSi2ZLD52bZjL3fddSfPPfsE5aXDaGw8yHcbt/H4k8/zwD13Yzd03vn7yzQePMi277/lnTdeQ/Um8/Lr7/DOm68zfuJYnnj4MT5a+TkXXXQRF55zEigKY2bM5LobbmBQziC62lqwIQQjUc4673x+feONTJo4nqzMvnDP7vbS1RPmtVf+zob167nwogv5YPGHLFr0KgVFg6mrq6elpZXXX3+dmn0NnHHGGbz91lssWrSI008/HbfbRXd3hFjMICU1hZ///DwW3HkHI0eO7OfRRyKRxMZln893zD7b1atXU1ZWRkNDAyeddBIbNmzA6/Um2jTWr1/Ps88+y7PPPsu+ffuw2+3U1dUl0iVmr1RfUlolPz+fOXPmsGPHDjweD11dXeTm5lJXV9eXVzry09zczOLFi0lL8zPvpJO45JJL8Pp8rFyxkqam9r4JqDbC0TCKAoEkP3pcJ65rOD0KvcE4l196BSefNI+T5p3AySefzAMP/P7oXssjnklfblPFiEUI9nRz4EA9I0dXs2zJUs7/+XmoqpMXX/o7v7t9AS+/9BKZ6akcbqznm7Vr6OqO8NJLL1J7oJFf3XADS//xD+64807WrP2av/7tcQYPHcLll19Gst+F3+/j2ReeZ9SoUYm8cHtHO5lZWfzHtddy5lln4Q/4sSUlYXPYSUlNpWbvXv74pz9hc9h57oXneXXRIk455RSSk5PZsmUL3377LcuXf0p5WQmPP/4477//PtffeGPif3rE4kfPUnO5jugWA1BBcSrEjBgujwPV5wJF79/sOn78eB566KHEfkOPx5PYgtLb25s4ccHtdic6qg8fPkxOTs4/DSfNokBqaird3d1MmzaN1157jWnTpvHwww9z/fXX8/zzz/PBBx8wc+ZMpk+fjq7rfPPNN2zcuJHyiuHs2r2HpkPNpKSksGrVqkQDY0dnJza7HfVIhcrhcICicMkVV5Cfn8+K1atYuXoFzU3NvPHGG7y1eDnzr/4Vj//lAaZNmcAJc6fy90/W8c2366nImsq+mv240rI57fSfgSpkZaXz7dbdvPnmm3Q0NzCsuISFCxcyKCcXj8fJKaeewj333k1KWt8BekMG5/Hll18QCga58MILGDK4gMKcFGbMmMZbH3zFZ198Tdn8MqKRTiSucO+9Cxk7PI2sQSn87oFHqSwv49c330JmWiqTJ01k5Rdfs7++BUWFPTV7OLDrBwKeAHHdRmZRCao7BTQn886Yz7nnnE2y34XP4yCuxZkx5yROOfVkdqc7qK4s47NdbRCPsXbVp0TCOieecyZzTzkNn9bF5PHVbNi4i7Xfbea8OZdQXloM8c8oKytl/hkn4xTB63aArjFtxiyee+E/SfOo9HZ0Eg32EgmFsDtdtHZ08cP335GdHuA/rrmG6uoxjK0eQ15eHl6vD4/HQ05ODl63ymeffUZSIJmKYYVcdNFFVIydQnqqG4dANBIlIyODzKxM+toQjh5i6XA42Lt3LwsXLqSoqIhLL700cUy23W6ntraWUaNG0dLSQlFREa+99hr5+fmJivSVV15JdXU1zz//PF9++SWFhYXs27eP008/nXPPPTfR+KqqKt3dPaSkpDB69Gjq6upISUmhrfUwNputz4AfSRLGw2G+37yZAw31zD/jZ5SUlJKTm8uoyhF8uf573nj9NW6/7lrcThWH04EBRMMx7KoDbCqaCKoKZWXlZGSlEI2EIBqnpKQMVbXR293F9+s3ERcIKUJGWgo5SX6SfV5ieUlccsVVVI6oYOrESbzx3ioys3O44de/puNwA2fOP42HHn0alwr7avqqiRnpAX513fV4AynMnTePx599ng2bNtHdG+T4E07g6aeeoDVscP555+DzuGhuOQxikJWdzaOPPsq8WVNR9RDrv9uIHo0S1zQMMfh+y2baO7u5+JJfctFFF6GoCs8+/RStLYdx2m3UH9hHWmoydXV1PPHEE4wcPYbKykpOPm0+kyePQ9NA1wWnam7F0lFdNkRiTJ0whdySfDqVIAufegSn13FUiYn0HQlsbrswvSdrqdc8CC0ajaJpGgUFBWzevJn09PR/mth3u92JBsrNmzdz8cUX4/P52LdvH9OnT+fjjz9m0qRJ7N27lzvuuIOysjLsdjtr1qyhqakJr9dLR0dHX2+Ooh4RIBdbtmzpazpMSiKuaSCCw+GkdvceDhzYT1ZWFn966M/U1Oxh7+49bNu0jd/c/UfefPN9rv7lL5hVmc5Z557B37/4nv379/GPj4LU1tQxe/5lVI8uRI32sHDhH4ne8SDfbtjEo4/9FQHGTJnNWWefzW03XIPf33dcdmt7F7FYlHCkr/E1rsPLL7/Ea68twuPQ2bmnHqJutmzdAWcMw+1WwRAQOyCEo2FSU7wEvF7cSX4MBTQthsRieHwBQnF46803+c8nHiIW0khJz+Wia29GU1yAk+y8wr5Fqim4nXa8bg+5BUVE42BoMbo7WiAaxed20tvZjgZ8vHI1YydNJ98VZF/DQbA72bm3Fq03iMftwedPIhaNoNKXMxUtjghMnjoNjlRdvW4Hfp8bEQNsDiKxOB3trThtKmlpaUQ0A9XQGH/kvyBFQiEuvfQyWtvaefGtxTzz5JO4HTB4aDETZp3I3ffcy5BBKbjcLt55911WrFjB9ddfx8iRI3E6nYkTbltbW/n888+pqKjgvPPOO2K5+2S3qamJpKSkxN7bqVOnkp6e3m/3wdixYxkyZAj33Xcfn376Kb/97W/55ptvKC8vZ9y4cYn2hUDAjyF9Z/Tv31fL7t27+nfdaxqKw05vKMhb77xNXIPPP/+c++5/AIfDwY4dOyAa5rlnn+Gmy6/AKQZOjxtFgVg4is1mJy6CBig2B3/+00MUFGWCaKiaQkFeDg67gzXffstvf30zza3tdALTpk7mkbvuQItFCSTn4XT7UO12bKqCYnPg9vqJxXX8fj/Bnk5sQE9nO9FwkEg4RFt7N5dcdhldwSjRaITO9g5cKe3sralhSIqTcDiEzeYlHosSd9g4koQmPz+f0aNHYwB6sLfPS7SZZ5ipxDUNkb5IKq5p2J0OUlICOOw2kv0+hg0dzD333MPTTz/N4sUf8sGHSwmkZTBj5ixcLjdTp4xDRUE3+s5B1AwNh2ogqkF+Ri6DMnLo1HsZ7ipGosZRJRaPx9m0aROLFy9m1KhRnH322Yl/kLFv377E0SxmuGmegHnPPfewatWqxOkU/x2Y59unpqZy6NAh8vLyeP311zn99NO57777KCkpobCwkMzMTFavXk1XVxfDhw/njDPO4IMPPgDgrrvu4oEHHmD8+PH09vbS1tZOVVVVX2iqKInzw9etW8eCOxcwZfJkHv3rowwbNoxhw4oZXlrB0y+/RU1jkHBvHFSV8hFlZGcl8d36r9i/wU4wpnDSiXMR6ev5ycvL58EHH2Tf/nqa62v56OPlLF/5Je2dHVx58c+JR0N0dnbidveVoT1u87RUOPnkkykrK8VBmIZDXXiyqxk3cgiRcAM2FNLS0unq7gKSsTud9HSE8DidKHYbPbEYTpcDkCPHfMLQoUOZPm0awa4wHn8GQ4uL2VPfDopCONp3aCN2O6mBAOFIiNbODmxOSE9Pxe2w4fQ4MCJBXG4nAowYUckNt/0GpWUPjYcPUxP1MWv6FOwp6fSGwhiahqFraAakJCfj97lRAY8vCdVOnwcSjxEKBXG6nCh2J6KoeF0uetoP09nRwdASFRtOVq5aha4L1aNHkpuby5VXXsnc+eeyc/ceftzyHYtee4Odu5/j5FNOIXXaJJI8DrZt28aiRYuYP/90Kisr++3vHDt2LI8++igFBQVkZWX1kzWz2djlchGPxzn33HOx2WyJnkAzukhLS2PevHl8+umnif8rEI/HicfjaJqGx+MhEonicLooLh5CRnoaGzd+lzhO5+iOBIUft//IkqXLcDhUDrd0sHTpMnp6gohNRfH4OFRTw9q1XzPvuCnoYqDaQUUBA6K6AQ6FeFwoLSmlcEgGTgVsKH0dC+ikpaYyrnoM7d29BF1eRgwvx+N0IZpGXBQcbi/EYkQjEVBU3El+UGxo0SgBbx/fkgM+YtEwHo+b1NQkzjn3PPxpmX1FvVAYX0oaIyorofMgLreLzu4gIDiPNB8Ti+Hz+TAQFMDu9/f1Ah7ZrRGOhBOVXvMQUcOAjrZ2ftiymYy0VMpLiznxxBMZNWoUhw4fZuu2Hbz7wYcs++AD7A4nY8f+HZdT7YspVfXITgcdUPlqzRd88ulKdAM4rPH/NXbm4VVV997/7L32cKYkhJAQJiNzmBxBEAVFxKEV0YqC19beVlrrtVjt7b2917e119bW6n1LpfoIihSUQmupYUyAMMlkwaIUUBFIUEAgCRDIdIY9rfePPXCS2ud5z/Mw5OQMa+/1W7/59/0mjVRnUMSDBw+ydetWmpqaePDBByMMpz//+c+MGzfuH6BUBg0axJAhQ/jJT37y/1WdDFmPXnzxRe655x6EEJw8eZJx48bx4osv8vTTTwMwbdo0+vTpw9133817773HokWLcByHl19+mR07dnDy5Ekcx+HBf3mIG28Yz803T6Kq6h06OjqwDYN4IsGwESM409DI8neq6NmzJz/6zx8iJfzsueeor6+jsM8oBvS7DLJpBo8YzpRJN/CHt6oQXpxEsoSbJt4IHrS0XGTKlNtQEyX8+tf/ywPT7uSyigr2Hz3OyRMn6ejooHthCkPXkYpCS8tFLMdnKFqzcgUfHTzIc7/4OTLXxq1fmcapjm28PvfXSE9gW5L2thbicQ1HSjwEMR1fcUiPWJA31A0d28khBEy7+24e+MotGFqClg4bWVzKjl/OAcUhVRD3iVtaWslkssSMGLop8IALFy/gOja6tHGtNKOvG4dpzOfMmdMMGTSI8pH9+N/fzOH1FZsYObg/KANJpIrIZDowhYKmQntrGx2trRgaZHO5IEEDhq4Rj/lwSB2ZDJf378OYMaNZ8lYdmzdvYsCwkZxvOM1jjz1Gjx5lPPfsz1j1x7fY+u67fHv2j/j+Ez+gueEkBz8+xN8+rgtCtinY2Qzf/e53ueuuuxg8eFA0pJyPiDt16tROWFgyQKO49tpr+fTTT+nbty9Hjx5l4sSJAJ2acAsKCgCYMGECzz//PBs3buTee+9l9OjR6LqOrutRA6gEcjmH4uIi2traSCV9AIPCwkK/l892qN20mWzW4aabJ/DSS3MRQiMWj+NIyeNP/Tubazbwhz8s5Y5bJ+B6EscBIX1lIIWOjURVdc6fPceAAaWAi+cJhAKWbXHVtdfyyu9+R1vWxivuAdIl+9kRVEUBRaUja4FhIFRBrrUN0/TBNnVNI5PuQAFcx2bsdWO47LLL+Otf36dXr15MvfdeNm5+l299exb33D+D737r63xyZF808+s6NpKgqVZRokZx23EQwjf0XjABo2lawNdayObNm9myZQu33TaF+fPn88rLujUuoAAAIABJREFUv+Ord9zO1Lu+wjM/+T9cffXVzPntb7lr6jSazjVztP5YlHNPmnEUTSWbyRKPm3gSVEWl7kg9WzdtwXNhROVITFPr3GIxefJkBg4cSGFhIdlslh49erB69Wr+8Ic/sHv3boQQjBgxgt69e+N5/kFdtGgRFRUVUcf3l3XmhnNZmUyGfv368fWvf52HH36YZ555hq9+9as89dRTtLW1MW/ePJYtW8aGDRs4efIkx48fR1VVpkyZwsyZM6murubgwYOsXbuWlStX8uqrr/KrX/2KTz/9lNdfX8BHHx1k0qRJ9OnTh1FXXMFPfvpTfvazZ1m46PcsW/YmrlQ4dzGNYhTxxKOP0KesAOIaIBg/5mqqV63nwgWF6Q9+k56lJcQFeMkkt9x6K/8793WmT7+PEUMu5+QXpzlz6ixP/fi/KSstxc6mGTxoEOtqN/G97z7KT/7PfzNt2jQ2126gZm01V4y6EqwOPq0/wV3feJRhwwYRy3wGxNC1FjwvC4pASgPXBlUBoal4gKkb2FYOT2YRgSHQ0METFMU10iqYMUDN0tp2HqGomGYcFYHnupi6X6HWzBiW7ZDUFRK6SuXYG5h679dY8HY1d0y+mQLd5eixeq6aOIVrrxgOiqC0TwUgWVn1DjOz7fz4ycdIpVJYDhBY4o6ONEk1BDj00Un1wAN9/70dPPPMM7y2eCmKa3Oivp6pd93DhAkTaf7iM1auWsXTTz/NG4sWI7NtHD95iqHDr46G981YjPLynvTu3SvKZYXIEqZpcvz4cZYtW0ZpaSn33XcfBQUFUdriK1/5Cq+//jp33nknq1evZsKECZ2w0kIGo61bt3LrrbcyZMgQrrnmGvr27cu2bdtIpVKMGTMmmuRQgJip0d6eJpvNUtytEEM3KCvr6bf3eF4ULcyYMZPhw0cgNB1PShRV5VvffJgtG7ew+69/5f2/7cWM+X2GyXgM6bjoiQJaMxKhaySTCVzPQagB5I0QGLoBuIh4nG5F3WlHYAhozwNWCKcs8lGXY6Ygl7mEopLL5Ugmk0yfPp2DBw/y0EMPMXDYSA599BEFxSUMGTIEKYlGuT7++xEmTZrE7NmzGT7yCiCAt0qmgrPue61KwH6ka3o0Dvb6G7/n4W9+k+4lpdQdPUrPHiU8+OBMKocOJpVK8faf/8LRujraOjKcOtOIEIIHZ86guDCOZXuYuko8HsPO5dCEBkIw7e57KC7pTqIgyR+WLiVrdFyC4onH4xQXF9O/f3/Ky8uj8DGZTHLq1CnWr1/PuHHjqKioiAY9z5w5w7p16yLeyOPHj3P27FkaGhr44osvaGxspLGxkba2Ns6ePUtzczNNTU2kUinq6nyLO336dEaPHs2TTz7JyZMnmTZtGlOnTuVrX/saN9xwA/fccw+9e/fmhRde4OOPP+ZPf/oTyWSSJUuWUFFRwdChQ5kz57eMve46Bg0azMqVKxkyZAjT7rmH66+/nkGDB9He1kIiplNaVs71N9/Of/74pzz6yEwSJuSyGTRdoySVYu2aGjKeyc9/9WuGV/ZGOhLDVBk/fjy9+lSQTqc533iaQYMH8/VHHuVb3/42PXt0A9cmEY+TzlkgDK666kq+eucURg0bhqKbtLd3UFRQwL98/ev88On/om9Zd7JNjZw/e4F+lcOZfMdtdC/qRiadprmxiWvHjGHsxIkIFDItF9B0kxum3MaAgZcTR/o97tLPUWSxaG69SIencPvkmxl75TAU1+PkyQbKevVhzITrGTliCGqunWwmQ1l5PyZMuIleAwcxceIkjGQBF1sv4iGZPnMmj//bY4y9agRCgdIeZTS3tON5ktKepdww7jpSpsC2c4y75Q6GVw4iaeh4do5z585RVFLKFWPGceWIoYyoHMyIyiGo8QI6MjnKSkp44okf8I1vfJOy0u6MHFnJkEGDcRQd23UpK+nG+Btu4Be//r8Mq+yPBti5LAcPHmT37t2Ul5eTSCQ6IbYeO3aM3/zmN7S0tDB27FjKy8sjbyyVSgXNqTexcuVK7r333k5IwpZlcebMGb7zne8A8Pzzz9O7d29qamr4xS9+wbZt2zpNr4RMRXv37qWhoYHCwgLOnzvHfffdR3GPHhw5cpimpiauv2E8M2bMpEdpGa7nIfGnFkq6d+d80znKS3txzdVXkCo0aWtv5frxtzLm2qvJZZto72hjcOV1TLrlVlKFBppQ/cMLWHbWn6RAAVXgqCqu5+K2t5LJWgy6Ygzjxo2hLKlgWTksvZArrryKcWOuxlRdLjSdobAgzsgx47nyqmsYfdUo+vfvT4flcqGljRsnTOBHP/oRMx+cQUxAMmGgei4OChnL4bbbplBaWkZLOsMNN05g7NixCOmgq5J0ezsNFzNMuf0Obhh9JbGYwaSbb6akRykXLragmyY3jh/PT55+msmTJ9GjtAdfvf12kok4R+vrKSzqxoiRo/ifZ59l5oz7fKOhKAgFspk0phlHUVRwIZFMMHzYMAYNGMDamrVYVq4zKGJDQwN1dXUUFRVFJW0pJW+//XYQCvjchiEpZjjj5Xkeffr0ob29vROLTygsIXlDWCBIp9NRBfS6664jmUzy/vvvM2vWLN56660IiUJKnwikuLiYB//lIRYuXMikSZP45JNPOHe2iVOnTmEYBldddRU//OEPuebqqxgyZAh33fVV5s+fj9A0XMdBaApggSdos2PoJhiAa9vYrk2uo4Xq5ct44of/gVk2kI3v7mJoRRmaBEVmQKi4ngEShOqP6TiKP8Kjex6q4ieKHVfSZkniMZ2YYgMeridA0cCxEYZOOy5uNk2R0EFKsnYWPVmA4yqYQvh5AOmRFRoOLqaVRREa7cJEAClcFNsCqYOm4qg2LdJFURLoHsQ9G01V/GKBAjkVVBx0mQXPBVsFI0GuI4eZ8i13znZxVIGm+SMcCh6ebaPpJtl0DjNh0p5zSJoCVWaw2jN4BSU4EpR0mmQ8IDDxFGzNbwOJeRlQJG0ZDyORws5aJGLB6ywbQ/Nr6B05Bd00EG6OrGUjkn7opjoOpqbyzDM/4+WXX6Gqqorrr7++E5nMyZMneeWVV+jTpw//+q//GpHrhoQwDz/8MP379yedTjNq1ChmzZoVRQeO43DgwAFuv/12hg4dyocffhgVlObOncusWbOYNm1aNDcqpQ/SOHfuXFRVIZtJM3z4MO6/bzpGLAYKOLaNpvuTHumMj+Yg8UPvuGkG42Zg5WyMuINtOwjND2lVpRXp2lh2N3RT4ErbHytyfe9WwSFInoHQyWmaPyLm5SDrkUv436WlL4KU2LFiFOHLuSqzIG2wXGSsGx4gpAVI2jMOsUSSto4MRiyOIkA6kqSahUwHrlmIohm0tbZRUFhAW9YhFgv4BnIWMd2fnsiocTwg5nk4HS2YqQJQVJpb2kkkU+iaiue46JoK0sOzAmw13cBx/XEzTffPVC7nkjR9OepoayWVLABPAQUaTzdw4sTnuNJl6dKlOJbTme2opqaGV199lVGjRjF37lwKCgoiiI3evXszderUCP65e/fudHR0cPjwYWpra5k2bRqaphGPx2ltbY1IGcJiQLdu3WhtbY1YuUtKSjh9+jSLFi2isbGRWbNm0b17d37wgx9w+vRpDh48SElJCX379qV3794ITaeychi/+93LDBtWyV133UWPku5kMhmWLFnC9OnTmTp1KsOHD+f22++IgPWEpuHk0mg4YBqYJmT81AG6Dtt37OHp//wPjvz9AxRN4VuPPEy/y8pQlWBuS9GwcxkQmj+a4UGuox0vUYQqAndfC+GWBUlNwfOgo+UiyVQSoRn+lKDw58cMQIvFwFEBSSwBrnTQRYxcTmLqft5BAhoimpUL0vt+bkLTwNN8ocYlpfh5L1UFTdXAvTTHGm2wooMS4pYoiHjCn2OUoOGhaAHcsZ1FU0ERfuI/Fg8q1aZGNpchIcBIFWAF743H46B44DhouhkIoUfM8GcETVNHBfSYgWV5GEaQqM22gWESjxvkbA9DCJJJg2ywXCk90h1pRo8ezSOPPBIR8MIlSOaBAwfy3HPPEYvFolG5WCwWdd4/9JBv+GbPns17773XacDZcRx2797NpEmTWL58OZWVlWQyGQYPHszMmTP53ve+Rzwej6qeigL79u3j008PMXnyZDZtrOWBB+5HNw1/BjYvwQ+gGzpOkKuLmSbSk9iWg2HoGDF/N23HwnE8YnGVnC0x9QSGEDg2aLp//4jmboMhVd3wq/MABHyMsTiug2+EEgmQ/npzDmScHMmY6nvugcRkbUnMySFiBqlEAsuTFCV9JeQAmuYXG4gnEKqO5UqKCv1KZzKm+SNoBD1cuVbQdBTAsiGpq4hUKphe0CkuKvQnZT3/fCA9rGwWI2YCEte20QwTgYLl+uxscVOQyVoIBVIFBf7gsn9c2Lr1XX7729/gOBajrhxFcVFx58R+//79ueWWWxg8eHAEbRJy2jU2NrJ3716SySS1tbWMGTOGHj16sGrVKiZMmMCCBQvo1asXFRUV0WhSiOsERBhlyWQSz/PYtGkTw4YNY8KECTiOw7Fjx/jkk08oLS2ltbWVbt260djYyIEDB4jF/HyOrhvceeedSCk5cOAAiUSCpsYGRo0aFTUr3v/ADKbff7//nVYOVQg0zQAESBXbBl3zB7EloAmNVLyA8TdO5Jox1/Lwt76BofoCIFwwhUQ3E9jOpcKFmUrhBPvse50eTjaLasZBFWgqmIkEiID4AYUoVeg5eK6HaiuB1lEQivCHsoUCisRxXYQqsB0XNF9RKqpAUTrDAuM4CB08z8EQpq+7RCDBbjDorUokChIdRZX+4Jz0BTmuKQgJQhdksjaGoaHrvrSoqH5eQlOxshZazCBuxgAHO2eRdSWJhImCgu0nyVBcvzE0bqhIL0hYex6KAMeRGEYeQF6Ut/HPJjIYxJb+vUjpBpZjcffdU5kyZQrxeGdYJfBbPvbv309RURH9+/enqKgoUmSqqnLTTTexfft2du7cyVNPPUV9fT2XX345qVSKWCzGxYsXmTVrFpdffjmDBg1CShlBV993332RF5bL5dixYyfz5s3jllsmcejQIUaNGsWVwfB3Jp0mnkgg1IDcRBUIoSEBy3ZRAVMTfqVZQi5rITRJIp4CqeJ5El1PRiPxPiDMpSFrx3XQBVi2jaGHxDU2QvHnWD3bwTQCWO4Ar19VIaaBoplIN+PPW2rCV1K6gkAL+tskOA6252HEYlgu2J7rjyahkMlagcIBxZPg+XKvqYG61vyeTMuCWNjzLgGhIV0X0LBdF00T5HIWMVP3PVfXAekhdB3p+e1Iuq6RsX3stXjMiMAYctmAIEaB4tISJt56Ey4W55rPktYzl8LJwsLCf+Bp7OjoIBaLsXTpUtavX8/zzz9Pt27dmDFjBrFYjPLycjZs2MCrr77KG2+8AUB5eXnEKON5XlRmzeVylJSUYFkW6XSaTZs28fjjj/PII49EUB1CCM6dO0ePHj2iykhIaIrib3ZYQLAsC89z0YQaVZE6kZjkshimr+19F8ZHhHAVJeh29lCliy41Lp49TyoeQzE0iJn4KWQlcMUDDAlFwbFddBwQgozUUAWYAJ4ddGwL2m1JTFcRuXb/8xQTFwXXlWiq4oeeMoTFkICDZ7sohh8OeK6NK100PYbrgaH6zE+K7nshirQR0gs8MQmaX3rG03Ec0IwAtUJqSMtDMXxpSwfDtFogZKFO1lwJiodUBSBRvKzvCSoxcpZHLBjalYqvaUIUDy9EzMhzFhxXguqjUKiBvZYoeAEeiOuCZTnEdIFQLXA9bDWOKvCvSVHIouBIMKWLkC4nTn7B6dNnGDFiZJQTC+cmDxw4wBNPPEFFRQU///nPGThwYCdmn1wuF8FLffvb3yabzfKnP/2JZ599liFDhtDU1ERZWRlnz56NjGfYwO15XkQSsmbNGl577XUmTZqE49icOHGCX/z8WUzT8BtvDYNsJkMsnkBKaGtvR88jiVHxdUWuPR2F8L5UBamDnIUVIJ7EhYYC5HK+T2qYsUty4rkINWAzz7UTM03fR5c+8qkqQCEHqHiu7hsOU+K5ORTHAz1Oq6eiSCjUHJCO76GHbo5UsFQFDVC9LNgOOSWOMAQy56Abmg8VDTguKLaFQRYMg5wawwN0y0aTtu8xooISoLUAjuMilABxw3UCEBPhvyaQGCdYjQp0tHdg6gLDiPmyrUEmmyMe15E4fPffvosUSueO/ebmZhoaGkilUvTt2zeCNrn55puprKykV69eGIbBk08+yeeff46madx0002MHTsWXdcj3HEg6ucJm2TDEnjYZ/bkk08yefLkqIE2xIIqKyvrhNFtGIbPy+hJPE+iaSq27efXhLgES9O9e3fgEhy1podmQUG6vnXEdlEMP9nqYKArKngu3XoU+6FWcLN1JBYOHiqqI3EtFzVhoOvCb05VFHTV30wA17IQgfKMuAMNA/Dxr2ypoGvCb3sJiUCl46MIKCqqFsdzAA1UTQOpRvkTFxddN0hnwDBBqKofvin4itCVSMtG0XVUL6C7c7LEjAIUzV+kbbmIuG+FPYfAyvouvuN6aLqKa1logcLD9XAVF8Pww+dMugNVVzFMM/AOfAQN0/TDR9cLBFSoBJE1luPieS6G4Ycanut7mvG4hioB2wVNQ6jQ0pahW1zDBTKuRsxUsHIWyZjB8uXLWb78L7z00lzGjx/vK4AAw6xbt24MGzYsKkR1pRQzTZMbb7yRjo4OFi5cyPjx45k+fTqzZ89m7NixPPPMMwCUlpZi23YUfRQVFZFKpdi5cydz585FSskDDzwQUL/VM3v2bGKxGIlkAtdxkJ5HLB4HKVEU1SceAWzXw3Y9EoaGIsFMXgLH9IK9MgyFeNxEx08JuNJDEDoSSuDN5VCFh6bqkbcWNw1cz8FxwLYkqWQo7yFbERi6Argoioqia0hV9eXWBWTQaI0Lwof28VyJpgb71d6BmkyhC0Hagng0XC9RNQVNgFAN/8McF8UAy4K4rl9yGjwXT1HI2TaargURBaiq8OPGQJW7tk3WckDomLFLI4ypVBIFn3BE0X35ON/czLmmBqTrkLuYo7Cw6JIS8zyPbdu28fbbb3PVVVfx1FNPkUgksCyLyy67jL59+0ZhzJQpUzrBEHuex6233voPPH35+Nr5P+dD4Ya9P2EndT63YNiY6DiOP1akKliWHXhtSieBDi10Psa5/51KAF0C6AIVHwpHUw0E4OayiJjvqmazNrG4v4kaYDs5NC2OUEJ6LMC2UTXdT4C6vpIR5qWDo4dutqKAI5FBo6Ak2FhFQdouiobvinu+FlA1FccDRfibZurCDyEsF2HqxGPgOIDq40fhOqiaDq6CYsaROVBNQBVkLc83/apvNnVTkPF8gyfCKALfgxK6L0yargXSDQgNVSqBR2ARTyZB8XA8F8eVmLoRkb+GY4OGEdwj10UVKrqm43jBgUIJmiOVKD+iBmGIAhQVxFGQCClJBFowFovT0e7nUFOpVAS/k88sVF5ezrPPPks8HieZTEaUaSGvQYhEetttt2HbNkuWLKG1tZXvfOc77N27l8cffxwhBCNHjqS8vBxd17l48SLHjx/n2LFjZLPZqO3io48+5vTp0/zXf/04mCYRQR5M9Q0kvnbxpMSyLVShoQuBJlSkB1Yuh2Gafg8gIHQNIXQ/4a74XqoQYfh9Cb31EluWX1Dq6MhgGgaGTtAyohPYS/8vRcFxXd+YKPipCyEAgeP6LzMEQSSg+l/qeb4HLRQ8Ca7roaUKwPXwFIgbIILBSV33k8WuC4r0/B414RcZ9DBlYtm+xdVUVKkQj/v5VU0zUJC4tnWpFUtKhK6T1E1cGXpsHrrwUW39+xbz4a0k7N+/n7cWLQLHobRHKaqrouUf+kwmE/Hx5dMx5f/bFaUxvNlwCapWfgnDySWlcgnGOcxv5Cu+EGEzH+Ezn4xWqEpQav5H3sh8Qo5OSjTwli0rh2HqGIFFUwFpmEGPlkcsHvDneRKhikhQJX6jnWPb/g11HDzHxdBEACPoh4hSBkYNXx9IBJqmR0CCilCQrkQxhJ/7sm1UFFRd98c0BGRzQTOn7aLrwi8tB6Bwuq4GIIQCETJIq4EyifSoQtxMBu9xURUfXVbz/N5U2QlAL0/QVT8Hoyi67x0qKq7rYcaNSDGpqFEuRFEDJhslNCbBcgLjFu6bggyUpoy8ZsdzULWACNbUfKMdyIyOD7yHAslUAQ88MIPbb7/zS6nREokEmUyGwsLCSHGF8hBWv0M5uOOOO6isrGTu3LnMmTOH+++/n5tvvhnDMNi6dSt79+6Nhr6vueYaxo4di2marFixgg0bNnDXXXfx7//+Q0pLSy9BOLteJ1z68N+YYZLN5ZDBvVdVEIGHkbVyJJJJcjkL0zR85aWpGKF3jILjuGhaAPesB56R5wMuppJ+uOmDBPpFBc+TKGqglFDQ8nguFVXDdT2k9FtLBL4CQiggAjRmofobqCq+H6cqgPA9ZcWfY5Sq4qdaA6w4z/XDSy8nUQ0DFRBekFsw44GC95fkBrnSiNg3iJLcgGFcCw6NqvjLMLVLmHWGGaZRQFPgQvN5WtpaaGtppUd5T1wJypgxY+S6devo1q0bjuNw9uxZdF2nZ8+eUak6tHChgggrlmHuoSu8cz7bdVey0K4MwPld1v+M5DbckHy+vdD7Csc/wtd3ZZXu+v78pr8QMSMfVzxfYYa/y8dF78oj2RV6Or8pM/+5fGjfL2Mx7/ro+rnhWvI91a4M6OGe5JP4dm0+/mfP5UNph/vxZQzoIdpJV3LY/PuX/+j63Jddb/jZ+fcphPruysoevt6yLD777DOef/55evTowezZs7n88ssB34MPSUu6Pi5cuMDBgwfZuHEja9euxTRNBgwYQHFxcZTyaGho4MSJE/Tr14+JAVrpgAEDog7/fHnvev3hXGa45nyF/mXXnH+P8x/59+nLyHi/7IzkG/WuoXX43nx2pnwSl65npev3ho+u7OH56+h6bkLvOZ+iDi7pj3z8t/BM/bOzHz4uXrzIxYsXyeVy/PKXvySRSPjhZIhWoWkahYWF0ZvymX1D4oZ8zykUtCjky/PE4BINlZSy08LzuQy7UqWHG55/aMK1dRX+cAQlX0GFn5k/v5VP6NmVXCFca3jTu1Ksh5yC4WHKhzGGS+xA+ZyB+Yc9xF/PX0coPPlci+H15hN1hBT1+dedL2Ah3nz+OvKrl13vV6ig8u9f2NcXPh+uO9yH/Ec+AUi+kH3Z//PfE353/t6EBqkrvVd4fbFYDCklv//976murubZZ5+lsrIyYtoCv2/riy++iPKnUVtNUCSSUkYV8XB/iouLmThxIhMnTuSpp57i/fff59ChQ5w7d462Nh+tYtSoUVx33XUMHTo0Ulah4gA6GexcLkcikYjku+uBDv/kM6nnK6787no/R/aPstr1XOXLAVw6+PnKJV+uvowJPN9LzVeW+Wv4Mp6I0OMM5SM0luE6wib5fB7K8JHfAhP+bAYFkFD+/9nET7iORCIROVyJRMJfExBRm1VXV/POO+8wfPhwHnvsseiiUqlUdDjPnz9PaWlpJGgtLS2Yphlp/ba2toglBXzygfyFg6/8PM+LCE9DVu9wg0MBtIJh0/BzkslkJBD51jDcrBBbLDz84fPhDcvlchQVFSGlRNf1iEA3PACGYdDe3k4ikSAkrWhtbUXTtE7WMkRRUFWV9vb2CJYotOQhV2dYTQtx0wzD6NT863keiUQiagAOLX06ncZxnCjRHL6+o6OD4uLiSIjyPbBwAD+ESXIcJ/JswpAnZHzKpxfL3wvXdSOyjFBoz50714mdXdM02traOhET51N7+VXjS0raMIyovaaoqAhN08hkMpEQht5tOAsZXrNlWVFX/ZEjR2hubo5QWOPxOKZpcvXVV/Pqq6+iKEpUhMp/bywW68R+lI/Ckk6nicfj3HHHHUyZMiVimE+l/HGacA9CmPbw9+FB9jwvum4gYrYK9yCU5Y6ODgoKCqL7EcpTeOhDGQpzepZl0draSkFBQRQphBX68H6G9zhcW8g3EH5vaDjCVqVcLhedp7BQlv9zeN7a2tqi+x8qqfC5UHZc141eEw7KhxBdpmkGQAixyPEJ71PY1tLR0RHdr5CMOzSuoTyk0+nIEUgkEui6HhGW1NTUUFVVRUtLC927d/eVdN++ff9nxowZJJNJ9uzZw9q1ayksLGTo0KHMmzePuro6rrjiClpbW6mqqmLZsmUMGjSIoqIiNm/ezJtvvkk6nWb48OEcPnyYV155hdOnT3PZZZcBsGDBAtatW8eVV16Jruts2bKF1157jZKSEnr37s1HH33EwoULOXz4MGPGjKGxsZG5c+eyZ88eunfvTnl5OfPmzaOqqopEIkFFRQV79uzhpZde4sKFCwwZMoQvvviChQsXsm7dOm655Ray2SxvvfUWK1euJBaL0a9fP7Zs2cKSJUvIZDL079+f9vZ2nnvuOQ4fPszo0aNJp9P8+c9/Zvny5QwfPpyCggLWrVvHwoUL0TSN/v37s3//fl5//XWOHTvGgAED0DSNOXPmsG3bNvr3708sFmPFihUsXryYZDJJRUUFu3btYtGiRezdu5eJEydy/Phx5s2bx86dO+nXrx8lJSXMnz+fmpoaCgsL6d27N/v27eOll17C8zwqKipoampi/vz57N69m5tuuomWlhaWL1/O2rVrO13fm2++STabjbrUf/rTn1JXV8fIkSOjpuCVK1fSt29fysrKWLZsGUuXLiWXy1FZWcmmTZtYsGABJ0+ejNoLXnjhBd5//30qKiqIx+NUVVXx5ptvUlRUREVFBTt37mTx4sUcOXKEsWPHcurUKRYsWMD7778fzeEuWLCA6upqSktLKS8v55NPPmHOnDnYts2AAQM4e/Ysb7zxBnv37uWKK64gk8nwxz/+MWJzf+ihh7jyyisjgxZCU4XvAAAE4ElEQVR696Fifuuttzhw4ABDhw7FMAwWL17MmjVr6NOnDz179uRvf/sbL774IplMJmqtWLhwIdu3b+eaa67BdV1efvlltm/fTjKZpLy8nMWLF7NixQpyuRzDhw/nxIkTvPDCCxw7doyhQ4fS2trK4sWL2bBhAyNGjCAej1NdXc2SJUtIp9NUVlbywQcfsGTJkoj8xvM8XnzxRT7++GMGDBiAaZpRi9Lll19OWVkZe/bsYeHChbS1tTF48GDq6upYvHgx7733HkOHDqWgoIDnn3+erVu3UlhYSK9evdi8eTNz587F8zwuu+wyjh49yuLFi9myZQsTJ06ko6OD+fPns337drp3705ZWRnvvPMOy5YtQ0rJwIED+eyzz5gzZw6NjY2MHDmSdDrNG2+8QXV1Nddffz1SStavX8+yZcuIx+P07NmT3bt3s2jRIs6dO8eoUaOwLItnnnkmGrzXNI0VK1awYMGCSF62bdvGa6+9Rl1dHePGjePQoUPMmzePXbt2MWzYMAoKCvjVr37Fjh07KC4upmfPnmzcuJFXX32V4uJivvjiC7Zu3cr58+cZOnSobwhCjyGXyzFmzBgee+wx7rnnHtrb26mqqmLTpk20t/t43lu2bGHFihUR4ey+fftYu3YtdXV1ADQ3N7N+/Xp27NiBrusYhsGePXtYvXo1bW1t6LpOfX09VVVVNDQ0IKWPw75lyxa2bdsWWYC1a9eybt26KL/07rvvUl1dTX19PQANDQ288847fPDBB5Elq62tpba2FiklBQUF7Ny5k6qqKs6cOYMQgmPHjrFhwwYOHDgQFQ+qq6vZvn175EXs2rWLmpoaMpkMiqJw8OBBamtrqa+vR9d1mpqaWLFiBfv27YvaP2pqati4cSPnzp1D13U+/fRTVq9ezYkTJ5BScvToUTZv3szmzZujvE9NTQ01NTVR+LNr1y7WrVvH559/jqqqNDU1sXz5cv7+979HXkFtbS3bt28HfCKMv/71r6xZs4YzZ84AUFdXx6pVq6irq4vWtnz5cnbt2hWFtNu2bWPNmjW0tLQA8OGHH1JTU8Phw4cRQnDixAn+8pe/sH379ih03rJlC7W1tZE3sG/fPqqqqmhsbATgs88+Y/369ezevTvygsLrDfdvz549rF+/PlprOp3mj3/8I0eOHIk8ow0bNrBr166oG3/37t2sW7eO7t27M3ny5Mhqh96UqqoRWc3OnTvZvXt3NAJ34MABNm3axKlTp5BS0tDQwOrVq6mvr8cwDJqamli7di179uyJkIN37NjBypUrqa+vj65zzZo1fPzxx7S1tXHixAnefPNNPvjgg8iL3blzJ0uXLo08v7q6OtavX8+hQ4dQFIVTp05FMheGo1u2bGHjxo1R6PXJJ5+watUqzp49C0BjYyO1tbV8+OGHkee2bt06tm7dGnlYtbW1rF69mubmZlRV5fDhw6xevZpDhw4Rj8dpa2tj1apVbNq0KfL2duzYQU1NDefOnUMIwf79+1m1ahX19fVRNBTuY+hthmcqDPeOHz9OdXU1hw8fxjRNTp8+zerVq9m/f3/U0xmehzDa2bt3L2vXruX8+fMAfP7551RXV0fy0tzcTG1tLRs2bIgQo9999102bNhAa2srQgiOHDkSXd/VV1/No48+yve//32am5tJJBL8P1OWvrSdJfeuAAAAAElFTkSuQmCC;" vertex="1" parent="1">
          <mxGeometry x="287.99" y="611" width="305.03" height="39" as="geometry" />
        </mxCell>
        <mxCell id="yt1E-KUk-oppLwzMUsVN-6" value="" style="shape=image;verticalLabelPosition=bottom;labelBackgroundColor=default;verticalAlign=top;aspect=fixed;imageAspect=0;image=data:image/png,iVBORw0KGgoAAAANSUhEUgAAAMgAAADICAMAAACahl6sAAAA+VBMVEX////cOC2jIyGsKCN0EBLKwsKoLiy/LSfYNiy3jouoJSK+LSa3KiXCLievJyPTNCvKMSn2zcqzKSTtm5beRjy6Kybk39798/LmdGzeQjioiIjneHHvpaDfTEKvPz7y7+/1x8TphH3YwsHkaWHxr6usODbf09PfT0a+ZV/54N/Ps7H99/frj4nofnb65ePjYVnzvLnhWE+AFBXIiIi9Ylu1My+wk5LBbGuzfHu5V1XHoJ/j09LFdnDjyMbQkYzFdW/WmJXo29nytazkxMPes6/OX1jtnZGOGhjKgn7QamScVVSrbm22TEqyZWToiIelTEu7oqHKUUi7iYh8x4oeAAAL2ElEQVR4nO1daVvbxhbGI7DHsrV4wxgMxkswGBMgpGxNKGnTS+6F3FL+/4+p5F3SzFlkg+jz6P3SJrFGemfOfmaktbUUKVKkSJEiRYoUKVKkSJEiRYoU7wCt2/wcvyb9NHFxkL+rZhbR/Vdy6YRYjPHlNunnYuJIQWKCs6SfjY6vh6d6HplM/7CT9BNS0LmDSEzxI7+Z9IOC2FQqhoZLK+mn1aJz1yDT8NC4e5ci9mufQ2KK7rszyDtxaPhoJv3kc7Q2BvmTyFRLKpPfbjsHx0lz8NBS6/fZUWVX8dfVipJMf5AwldbgTvW4HhrHa0eVYfDv5EmzrvOU5/lBcjS+nWueykdl9JP92U8aw7r/F5BJaCdjkL+B7juTKY1/djQSpp2j8Z/q8DXDt6cyhJ9otiQ+2vuz/1WryAIab0mltYE+j4+P0SuPt/DL+oO3iV6O84SHGUHhIZq0K8/vX93ntxDFmKNaUVhU6hx4Inb/mjTuNbY2iq0j5QBdMhFvJk6+vRKN38nPoM+d6vTo2MPpa2j+H9TIVqpkaoEKKyo7XfGqbFJlolFRy1QAHzmBcuP7qkh8/e1Pcpqx2/Ww06709o/g4KlUapL1LXN+uIKSxXf6/RTod4fhAeuls+bWOTk2nuJkGeeyGY3O+difLk1l55yl6WH0Y4eVx7GTpUVsTWIuJMoiIRaTFsfmAzif2GJCVOPan8oO+Itdrscf/GcpKQigMZYtZF6kVbANY319/ZMBc+nmyc5lcPg3oIuNrUrvrDTHfm+IhC0jfe+BP3GLHgtjRMSj8iBc6MfVz5RK0i0wc9VhZV9zWb0J2IWe9wP9PztW2ZhifQZRAJlndkB9aeUBGltN2DUcVdqaK/uek9StmiwYC1hfgGnDNnqo15c6JMenyFL60DHxciyNO3LKho6IJ2MgkYzUMLmH/PfJGanMcaQeo68ue7lWkEaYyPr6gw1SURmxAaixbQqLERN1xqGyvU7BiCBMxFsVE1L8RojJZv4KolGtqJ9aCdg8TUm4lhWloSLi671taS3yfwP3xiJ0Dg9K8dQtqkhoifjromPiBm6N+XBej+kMGU0q1wIkotf63OKdD5A7TytURJTgwZywgmNEIC1xflm88wZGpMciggZVjn5JVAoCeBNpZwNE4ODGc4UsIoQozbFsEpFPsH8vCBEkYmNMdhS1Ng1K1NjfrSnILJJAIq6Ma4owESEK8DWZKlG66vTClQerpiXygE2uUxZCQUSIInZXUmeJHfy7SiIP2GWWmCBKRNSQKej36giLjz1yGXIOpxgh8oBNqpMzASLCyCEVgd1KTx9w1StxE2PXChARZeyCgphDRcQHoioeur1I4aq+P6R3DJWY+UiBmZ2MYwtBICKEhXPxUD3d2jlpt3e63MKI7HeV1TlpFct20cJYWCIEPREPYLwZG9WtZmkkmXEHkOUwC4yIpy7LSUoE5wvRGt7qUqOgoIESEUVM8anon1QqAa2qs3Z5zGAVlTxQIr6AoXoH43RYUtm4WBVY9WoQicTWFdmt6MNlUtoVhKNZDDoRDzUGl1NPippIUFZiu/6crX86BhFP78s0LqekuJLp+nO2CT2bhw9kIj5o2kKIK4GdjlHIiNNQ4JpFRKBx/hhdJBpjFeRdAg2RPeAR8RRfX8hYBFzFY1gsF5OpMYJ1UwoRQVX8/lBrsshdo1yN9kT/C1W1jm9o1wk0Fhqjra66IEWJGVxVKKLCY6Qmv0FlIswCyeO3FYp/TGocSTINsa2arS9Z6uVkxQ+bY0qM5dA0w8eepjnauiIPIQyahJ0HqBBcujK8VSPX1fcUOk90KkTFry7EKlhVwi3ALnwB9mgid7V7uVsXvzCoFHMUEZPt38eDN+GgV0LxVIjGLDDfvVN3rQanGZdo98YokLRlx9+asg/+xCqQdSMkCqpm4mTKDA4VmrJkmmBWSHLhY0TbPj/CCvJlmklL16KbDmHbFsUeA7tRXbJqCMuN3qsaoLH5OfivMsfgIoqxU3xp0UVZY15kgMhh5N+dHN0U+h4/VjaZo4uxVh0DjR51f0SXJSthYnVKxfjkqTL04QSxP0JJCGYoc8oVDn0xoB0djpklEWFZFE6OzzCN0EoXw6luUf9rx2VIsrApEparUQ2Vbbn68eQoFAjl7DY0l5Kl+DXYtzAMItyzcTX9EbjEwPL4JlDcs8heAzbqs7lVVFGQMilYXYo8hXIsRnQLLuviOMpyEBJwOHQf7Of44cvpLhyZ0oAtVRIxc0j3UV+5VDAJDubQhQqR8qCSaQt0SEQryRZnRKZoWa7r5opkBbftGnR7Jxe+AKg0ouvCCsRYgFNPR+UIkJIpFp5HJmYVgIsBGhXDar9RXQ2CkdHRgNxQW68jFLFBYfU920p5gPdy9BdSqvHYqgDtFyZgOwWafVpbwSwAsc6Iis3KjJWwYQ134TvQ+yPY/lterB8BvOq4JjKI6AKOGWRsEYMHtiir/ZNDBN/d4SINMiVga0KLBPY2eEQ8dcHyP7aXhIWKODH/X+MSgVPO0RRyWMC9b4caJgc6iGtrLWLV1wtewHVxiPUKE8hIOeHlX5FCdovcH0G3EeCKD27GkjW6iCoPkG0f0qlgATKU5Bs56FKXEfgUDzV7x54/0AcpI0ZMZzhNqIIvGTRGrdnqnbqv0KITwZNJ9VUQfcm5/WQgTTv8guUMCjAXJzyYARZFyHZKBMtnhwcRGqNjFxwhBaslPtxCeaK5ZjEHFe2lxVDxWvCuwdMKa53Pf0+nxmKE52a5gJCRjgfwJ7KA7jeZIxrENgI8vgeHZokYUGEmwCnQw2dbNWlBIpGtFazICQuPAXCiAfUhpUBbQVHEZlV+YvZHWO0kjfOSeFvBYRVLMC+pAL3QBfif0LELTVeLcSvchoWmiWGn9CesLDOcWOlSA+nSG8f+LWm9d05JvKaNU2VBdexCXxqTpERtCjAImUwjY50BgdUeuzD0twaqMSrAoT59HKhgBx27AE6Sc6w9vCqM5YXaaMixCyB64nWthNpJKou3uhGAyIxw7AJKm5hV0kjiwVgM6DUD5GMXUEkux6rHmX5LwY+1vP8wNNyAZJx37AIqN628eh1iAVQF4hy7ABPS5aukWkD5fLxjF+AOOepuVi4ga7PEsQvsTOaKYULKueSxC/AdJStuwAESsIpjF2Uw4qDv74Fh5/QyFcn94xEZkQGocJyDDlARA5dgTlsBSjW8SHY5EYM2elH6x3sMIlgTbgnFh7SQtsPqkkXEQw2KaVm7uuaAvAbx2EXgHAy1rQAl5rxs0geUHFMd1VNonz/12AVcumXpPdTHJZ9XuNlYC4F+7AI8QWJRtcXQ02Acu7hR1bAZxy5AxadoC1DRYxy7EI8KGmu8YxdgwwkrHwMtUMbGNHETrV5PwTp2AdZJAcXX14wYxy7EzaWWxWhRLvY4VEBtUT6Usng7WQxGmpMlvLSx84NBxYBaBRGvbALbTxnHLsTVNvEVdD8ZVGAJk7WZQTYAwy052Y1Gw9W4p1swwu5rKRlbLRFccV82u/nC4cLf3z8jyTh2IR6fmSxG2NhmKL6pL9CC4GxWv47/bulL+i6CWH0rRlqWfdF7DQpa1wwq+Dt7FsE4diGevi7FYowBS/HBKtICJCMSeVrVK5g7LwwqcPQyAaOM/HSxylfIH3AUH9tIwGgcZq+2V/0JjNYlfc8NvN2OkX/9fJ33+R/fc2LKpY9diB+v+D0Szqqotg4y4sLwec/VonXJWZT4xy7EX2/wSZVOnqP4wigXa7VimeE0Plw/v9FHblrbHI/PxF6seCo2Nu8Zu+04NJYLRGLhduUssrcJffyNUayg4EsyLEborE7APiT8uceDbY5B1mDvJcEPWC3gdrl1yb4kTWCOfHwaN+9jMWboXMQRsSy1sPOWYOyun+Gdfs+VlUt6duodf2jz+YVa3Mvm3+U3NhcxINB4TCASiYEBXNzbW3n6+nqAjj1k371MBXCrWxR28TZxPEcFLBuveJs4ji+v514ye/O4/VpfoHsjbB4cvO+PTKdIkSJFihQpUqRIkSLFcvgH5Cke1BYZiPYAAAAASUVORK5CYII=;" vertex="1" parent="1">
          <mxGeometry x="415" y="515" width="45" height="45" as="geometry" />
        </mxCell>
        <mxCell id="yt1E-KUk-oppLwzMUsVN-7" value="&lt;b&gt;&lt;font style=&quot;font-size: 14px;&quot;&gt;Metrics aggregator&lt;/font&gt;&lt;/b&gt;" style="rounded=0;whiteSpace=wrap;html=1;" vertex="1" parent="1">
          <mxGeometry x="420" y="442" width="224" height="54" as="geometry" />
        </mxCell>
        <mxCell id="yt1E-KUk-oppLwzMUsVN-13" value="" style="shape=flexArrow;endArrow=classic;html=1;rounded=0;" edge="1" parent="1">
          <mxGeometry width="50" height="50" relative="1" as="geometry">
            <mxPoint x="440" y="521" as="sourcePoint" />
            <mxPoint x="440" y="475" as="targetPoint" />
          </mxGeometry>
        </mxCell>
        <mxCell id="yt1E-KUk-oppLwzMUsVN-14" value="&lt;i&gt;in&lt;/i&gt;-&lt;i&gt;memory&lt;/i&gt;&lt;br&gt;&lt;i&gt;intermediate storage&lt;/i&gt;" style="text;html=1;strokeColor=none;fillColor=none;align=center;verticalAlign=middle;whiteSpace=wrap;rounded=0;" vertex="1" parent="1">
          <mxGeometry x="462" y="521" width="112" height="24" as="geometry" />
        </mxCell>
        <mxCell id="yt1E-KUk-oppLwzMUsVN-15" value="" style="rounded=0;whiteSpace=wrap;html=1;" vertex="1" parent="1">
          <mxGeometry x="221" y="209" width="165" height="191" as="geometry" />
        </mxCell>
        <mxCell id="yt1E-KUk-oppLwzMUsVN-16" value="&lt;b style=&quot;border-color: var(--border-color); color: rgb(0, 0, 0); font-family: Helvetica; font-size: 12px; font-style: normal; font-variant-ligatures: normal; font-variant-caps: normal; letter-spacing: normal; orphans: 2; text-align: center; text-indent: 0px; text-transform: none; widows: 2; word-spacing: 0px; -webkit-text-stroke-width: 0px; background-color: rgb(251, 251, 251); text-decoration-thickness: initial; text-decoration-style: initial; text-decoration-color: initial;&quot;&gt;&lt;font style=&quot;border-color: var(--border-color); font-size: 15px;&quot;&gt;MEC Orchestrator&lt;/font&gt;&lt;/b&gt;" style="text;whiteSpace=wrap;html=1;" vertex="1" parent="1">
          <mxGeometry x="236" y="214" width="156" height="40" as="geometry" />
        </mxCell>
        <mxCell id="yt1E-KUk-oppLwzMUsVN-17" value="" style="rounded=0;whiteSpace=wrap;html=1;" vertex="1" parent="1">
          <mxGeometry x="241" y="271" width="138" height="124" as="geometry" />
        </mxCell>
        <mxCell id="yt1E-KUk-oppLwzMUsVN-18" value="&lt;b style=&quot;border-color: var(--border-color); color: rgb(0, 0, 0); font-family: Helvetica; font-size: 12px; font-style: normal; font-variant-ligatures: normal; font-variant-caps: normal; letter-spacing: normal; orphans: 2; text-align: center; text-indent: 0px; text-transform: none; widows: 2; word-spacing: 0px; -webkit-text-stroke-width: 0px; background-color: rgb(251, 251, 251); text-decoration-thickness: initial; text-decoration-style: initial; text-decoration-color: initial;&quot;&gt;IARM&lt;/b&gt;" style="text;whiteSpace=wrap;html=1;" vertex="1" parent="1">
          <mxGeometry x="286.99" y="271" width="59" height="36" as="geometry" />
        </mxCell>
        <mxCell id="yt1E-KUk-oppLwzMUsVN-19" value="" style="shape=image;html=1;verticalAlign=top;verticalLabelPosition=bottom;labelBackgroundColor=#ffffff;imageAspect=0;aspect=fixed;image=https://cdn1.iconfinder.com/data/icons/unicons-line-vol-5/24/robot-128.png;imageBorder=default;" vertex="1" parent="1">
          <mxGeometry x="254" y="319" width="53" height="53" as="geometry" />
        </mxCell>
        <mxCell id="yt1E-KUk-oppLwzMUsVN-23" value="&lt;b&gt;DQN agent&lt;/b&gt;" style="text;html=1;strokeColor=none;fillColor=none;align=center;verticalAlign=middle;whiteSpace=wrap;rounded=0;" vertex="1" parent="1">
          <mxGeometry x="225" y="374" width="116" height="12" as="geometry" />
        </mxCell>
        <mxCell id="yt1E-KUk-oppLwzMUsVN-24" value="" style="shape=flexArrow;endArrow=classic;html=1;rounded=0;entryX=1;entryY=0.75;entryDx=0;entryDy=0;" edge="1" parent="1">
          <mxGeometry width="50" height="50" relative="1" as="geometry">
            <mxPoint x="419" y="519" as="sourcePoint" />
            <mxPoint x="317" y="369" as="targetPoint" />
          </mxGeometry>
        </mxCell>
        <mxCell id="yt1E-KUk-oppLwzMUsVN-25" value="&lt;i&gt;direct access to fine-grained metrics&amp;nbsp;&lt;/i&gt;" style="text;html=1;strokeColor=none;fillColor=none;align=center;verticalAlign=middle;whiteSpace=wrap;rounded=0;" vertex="1" parent="1">
          <mxGeometry x="296" y="506" width="112" height="24" as="geometry" />
        </mxCell>
        <mxCell id="yt1E-KUk-oppLwzMUsVN-29" value="" style="curved=1;endArrow=classic;html=1;rounded=0;exitX=1;exitY=0.75;exitDx=0;exitDy=0;entryX=0.5;entryY=0;entryDx=0;entryDy=0;" edge="1" parent="1" source="yt1E-KUk-oppLwzMUsVN-19" target="yt1E-KUk-oppLwzMUsVN-28">
          <mxGeometry width="50" height="50" relative="1" as="geometry">
            <mxPoint x="446" y="376" as="sourcePoint" />
            <mxPoint x="496" y="326" as="targetPoint" />
            <Array as="points">
              <mxPoint x="496" y="376" />
              <mxPoint x="446" y="326" />
            </Array>
          </mxGeometry>
        </mxCell>
        <mxCell id="yt1E-KUk-oppLwzMUsVN-30" value="&lt;i&gt;AIF migration/scaling/placement&lt;/i&gt;" style="text;html=1;align=center;verticalAlign=middle;resizable=0;points=[];autosize=1;strokeColor=none;fillColor=none;" vertex="1" parent="1">
          <mxGeometry x="440" y="365" width="189" height="26" as="geometry" />
        </mxCell>
      </root>
    </mxGraphModel>
  </diagram>
</mxfile>
